<svg width="180" height="169" viewBox="0 0 180 169" fill="none" xmlns="http://www.w3.org/2000/svg">
<path d="M39.1863 15.0487C72.2757 -5.44551 114.033 -4.96737 142.975 16.2401C145.937 18.4106 148.824 20.6514 150.583 23.9832C152.818 28.217 153.173 32.3397 149.596 36.0448C146.044 39.7252 141.685 39.5614 137.379 37.8133C135.399 37.0096 133.681 35.4736 131.99 34.0956C112.29 18.0403 90.3206 15.6814 67.2058 24.8241C43.4845 34.2067 28.2748 51.6412 26.3103 77.0545C23.4452 114.122 59.1675 145.137 101.308 130.297C127.776 120.976 144.392 101.631 150.045 73.9393C151.477 66.9218 152.964 66.0551 162.225 68.1317C177.175 76.3147 182.414 87.7302 178.883 103.456C171.46 136.506 134.936 166.006 99.4128 168.058C69.0601 169.812 42.6458 161.391 21.8533 138.959C-13.31 101.022 -4.9698 42.3975 39.1863 15.0487ZM81.4773 56.2918C91.3871 52.2938 100.19 54.4974 108.175 60.9598C110.648 62.9613 112.641 65.4409 114.177 68.8934C118.075 81.5371 115.374 91.7728 106.802 98.1102C98.4008 104.32 85.8219 105.048 77.0261 99.4657C69.0535 94.4056 64.4218 87.0858 65.1013 77.5868C65.8423 67.2303 71.755 60.2143 81.4773 56.2918Z" fill="black"/>
</svg>
