<svg width="837" height="169" viewBox="0 0 837 169" fill="none" xmlns="http://www.w3.org/2000/svg">
<path d="M39.1863 15.0487C72.2757 -5.44551 114.033 -4.96737 142.975 16.2401C145.937 18.4106 148.824 20.6514 150.583 23.9832C152.818 28.217 153.173 32.3397 149.596 36.0448C146.044 39.7252 141.685 39.5614 137.379 37.8133C135.399 37.0096 133.681 35.4736 131.99 34.0956C112.29 18.0403 90.3206 15.6814 67.2058 24.8241C43.4845 34.2067 28.2748 51.6412 26.3103 77.0545C23.4452 114.122 59.1675 145.137 101.308 130.297C127.776 120.976 144.392 101.631 150.045 73.9393C151.477 66.9218 152.964 66.0551 162.225 68.1317C177.175 76.3147 182.414 87.7302 178.883 103.456C171.46 136.506 134.936 166.006 99.4128 168.058C69.0601 169.812 42.6458 161.391 21.8533 138.959C-13.31 101.022 -4.9698 42.3975 39.1863 15.0487ZM630.728 61.0301C632.278 62.5963 632.072 64.6249 631.972 66.5008C631.757 70.5483 632.99 73.0198 637.64 72.8875C640.519 72.8056 642.228 74.3249 642.235 77.3163C642.241 79.7197 642.531 83.2491 639.597 83.2704C631.262 83.331 631.784 88.6452 632.039 94.7479C632.043 100.106 631.649 104.963 638.928 104.558C643.018 104.331 642.167 108.07 642.884 110.37C643.764 113.195 641.697 114.212 639.538 115.042C629.713 118.816 620.194 113.026 619.452 102.719C619.21 99.3539 619.375 95.9613 619.331 92.5819C619.279 88.5968 620.168 84.6847 614.31 82.9823C610.524 81.8817 611.08 75.0473 614.958 73.1024C616.994 72.0812 618.697 71.5126 619.334 68.9305C621.253 61.1436 621.752 60.9213 630.728 61.0301ZM363.052 61.369C367.418 59.931 370.397 60.548 370.004 65.9823C369.699 70.2 370.688 73.085 375.844 72.912C378.824 72.812 380.199 74.6798 380.196 77.5633C380.193 80.4091 379.659 83.4271 376.237 83.4393C369.422 83.4637 369.732 87.8824 370.044 92.3348C370.425 97.7806 367.376 105.226 377.85 104.98C380.316 104.923 380.29 108.169 380.364 110.35C380.451 112.9 379.007 114.292 376.735 115.165C367.824 118.587 358.206 112.789 357.518 103.292C357.118 97.767 357.315 92.1995 357.051 86.0829C355.982 84.1434 354.361 84.1741 353.11 83.5174C348.948 81.3329 348.609 75.0782 352.892 73.2684C356.174 71.8822 357.635 70.229 357.473 66.9315C357.283 63.0493 360.228 62.2994 363.052 61.369ZM483.867 62.6073C486.883 61.3376 489.352 60.2802 492.062 60.7801C494.127 62.1783 493.814 64.2757 493.696 66.1063C493.415 70.4526 494.669 73.1115 499.699 72.9168C503.284 72.7782 504.131 75.1717 504.096 78.202C504.063 81.1358 503.445 83.4862 499.812 83.6922C490.034 84.2463 494.635 91.705 493.884 96.3309C493.175 100.695 494.113 104.871 500.177 104.5C504.244 104.251 504.098 107.361 504.75 109.783C505.574 112.848 503.571 114.111 501.068 115.034C491.467 118.573 482.333 113.153 481.285 103.056C480.888 99.2294 481.094 95.3387 481.093 91.4774C481.091 87.8355 481.419 84.6761 476.384 83.1405C472.286 81.8912 472.824 75.4577 474.804 74.8387C481.338 72.799 480.289 66.5968 483.867 62.6073ZM698.791 75.8534C705.26 70.3213 719.175 70.2293 725.715 75.5506C727.89 77.3209 727.908 79.0009 726.446 81.1659C724.909 83.4417 723.67 85.8022 720.13 84.2489C716.354 82.5924 712.489 80.6937 708.1 83.7967C708.352 88.2895 712.07 87.7837 714.602 88.4676C718.171 89.4314 721.744 90.2731 724.783 92.3963C732.384 97.7073 731.879 108.622 723.615 112.812C715.272 117.043 706.636 117.112 698.269 112.647C695.578 111.211 692.142 109.79 694.525 105.524C696.634 101.75 699.009 100.26 703.287 103.073C707.225 105.663 711.672 106.847 716.105 103.58C715.756 99.1908 712.055 99.5193 709.592 98.6834C706.359 97.5865 702.932 96.986 700.045 95.076C693.019 90.4271 692.454 81.2723 698.791 75.8534ZM314.695 80.3153C318.741 70.5916 337.081 68.3911 346.14 76.5877C347.983 78.2546 347.126 80.0871 345.919 81.7791C344.432 83.8624 342.925 85.5285 339.893 84.1571C335.728 82.2725 331.437 80.4931 327 83.8241C328.122 87.6636 331.445 87.7681 334.095 88.4373C337.456 89.286 340.693 90.3485 343.563 92.1981C351.309 97.1899 351.141 108.251 343.036 112.586C334.201 117.311 325.2 116.994 316.496 111.884C313.68 110.23 311.791 108.213 314.64 104.494C316.893 100.5 319.302 101.593 322.28 102.968C326.769 105.04 331.572 107.434 336.532 102.665C332.887 98.2917 327.526 98.7306 323.218 96.9207C315.225 93.5634 311.889 87.0595 314.695 80.3153ZM208.682 80.4383C213.92 72.8596 222.248 70.3456 233.167 73.4373C234.992 74.2305 236.246 74.7727 237.847 74.3543C249.33 71.354 250.487 72.2203 250.578 83.9364C250.638 91.6714 250.291 99.4196 250.636 107.139C250.927 113.627 247.501 115.674 242.09 114.201C238.03 113.096 234.745 113.775 230.98 114.949C222.43 117.615 213.926 114.583 208.89 107.646C203.033 99.577 202.95 88.7334 208.682 80.4383ZM263.41 73.743C270.9 70.2368 278.19 71.2272 285.296 74.8592C287.915 76.1979 289.73 77.9063 287.796 81.1844C286.141 83.9887 284.481 85.8563 280.825 83.9266C277.094 81.9571 273.162 81.1712 269.276 83.4832C269.564 87.7961 272.895 87.5186 275.199 88.3973C277.698 89.3504 280.435 89.7306 282.87 90.8016C288.01 93.0632 290.915 96.8774 290.715 102.735C290.513 108.644 287.073 112.097 281.955 114.091C275.009 116.796 267.998 116.374 261.204 113.443C253.215 109.997 252.962 107.417 259.981 101.049C265.026 102.627 269.494 107.339 276.048 104.49C279.127 100.653 275.89 100.286 273.704 99.4774C270.045 98.1237 266.192 97.1941 262.695 95.5262C258.167 93.3669 255.712 89.6127 255.897 84.4305C256.082 79.2582 258.846 75.8793 263.41 73.743ZM512.662 77.8045C520.77 71.163 529.179 69.8234 538.36 73.9549C545.829 77.3158 549.119 83.3908 549.94 91.1395C550.445 95.9016 548.846 98.4843 543.525 98.3426C536.229 98.1484 528.924 98.2938 521.39 98.2938C523.538 104.597 528.268 106.36 535.416 104.119C537.259 103.541 539.174 102.234 540.895 102.459C543.404 102.786 545.044 105.067 545.862 107.364C546.99 110.532 544.162 111.522 542.118 112.668C532.161 118.25 518.73 116.393 511.719 108.547C504.013 99.9226 504.224 88.4282 512.662 77.8045ZM556.774 80.6883C562.662 72.448 574.507 69.3058 584.324 73.6385C587.543 75.0593 591.328 76.3424 591.14 81.4071C588.484 85.2368 586.139 87.6533 581.267 85.0819C576.375 82.4998 571.057 82.6576 567.552 87.6971C564.641 91.8825 565.022 96.6007 568.204 100.529C571.967 105.174 576.749 105.873 581.776 102.325C586.454 99.0235 588.4 102.983 590.569 105.61C593.44 109.087 590.291 110.832 587.885 112.379C579.078 118.043 566.103 116.603 558.769 109.276C551.28 101.794 550.427 89.572 556.774 80.6883ZM657.407 73.0702C660.164 72.0054 663.292 70.7468 665.983 71.7909C671.837 74.062 677.57 73.8897 683.573 72.9041C686.919 72.3547 689.305 73.8748 689.304 77.7147C689.303 88.3611 689.909 99.0499 689.134 109.64C688.51 118.158 681.849 114.086 676.706 113.588C674.766 113.721 673.323 113.963 671.941 114.394C659.511 118.278 649.453 113.676 645.325 102.183C640.989 90.1095 646.252 77.3775 657.407 73.0702ZM384.76 82.3329C389.266 74.2303 399.909 69.9199 409.321 72.3748C419.453 75.0176 425.647 82.9971 425.493 92.9735C425.428 97.1703 422.997 98.1576 419.324 98.3202C411.658 98.6596 403.902 97.4619 395.615 99.1581C399.444 105.906 404.989 105.857 410.304 103.797C414.954 101.994 418.93 100.632 420.936 106.427C423.076 112.609 417.162 112.418 413.844 114.149C413.216 114.477 412.429 114.506 411.132 114.879C400.672 117.005 391.926 115.151 385.706 106.829C379.876 99.029 380.116 90.6835 384.76 82.3329ZM754.948 87.868C759.319 87.694 763.344 88.881 765.342 95.2079C758.252 94.3326 751.103 89.3364 747.395 97.9881C746.035 101.163 746.074 104.653 748.51 107.56C753.008 112.927 758.138 110.063 762.672 107.989C765.786 110.863 763.659 112.169 761.554 113.852C754.763 117.014 749.121 115.962 744.491 110.917C740.455 106.519 740.541 101.147 742.284 95.9481C744.233 90.1345 749.301 88.0929 754.948 87.868ZM771.491 91.287C776.642 86.9278 782.546 86.7251 788.932 90.4598C794.873 95.829 796.303 101.973 793.07 108.48C790.326 114.004 784.821 116.075 778.883 115.394C772.816 114.699 768.643 110.991 767.078 105.014C765.665 99.6161 767.371 94.7735 771.491 91.287ZM823.626 88.5106C830.811 86.6954 835.957 89.9353 836.464 97.1825C836.767 101.517 836.555 105.891 836.489 110.246C836.464 111.932 836.434 113.968 834.106 114.073C831.239 114.203 831.344 111.874 831.292 109.964C831.198 106.577 831.198 103.188 831.215 99.7997C831.231 96.4059 830.661 92.9207 826.489 93.0096C822.571 93.0931 820.797 96.097 820.327 99.9276C819.752 104.606 821.788 109.579 818.171 114.119C812.668 110.893 815.734 105.919 815.147 101.713C814.62 97.9315 815.65 93.0321 810.019 92.9803C804.419 92.9291 804.183 97.5299 803.877 101.894C803.595 105.916 805.68 110.578 799.953 115.121C797.99 105.917 798.775 97.8908 799.29 89.3924C805.849 89.96 811.672 85.7043 817.586 90.2254C819.584 91.7528 821.55 89.0352 823.626 88.5106ZM452.46 72.1629C461.288 69.6492 468.633 75.4157 470.515 84.5174C472.248 92.8984 471.16 101.357 471.306 109.781C471.37 113.414 469.458 115.066 465.762 114.713C462.248 114.377 457.919 115.31 457.847 109.717C457.773 103.925 457.703 98.1331 457.72 92.3416C457.734 87.8652 457.064 83.8206 451.301 83.8241C445.77 83.8275 442.626 86.7932 442.416 92.287C442.222 97.3483 442.181 102.429 442.396 107.488C442.593 112.113 441.409 114.687 435.962 114.64C430.904 114.597 429.707 112.226 429.756 107.91C429.862 98.4988 429.753 89.0851 429.769 79.6727C429.774 76.7163 429.79 73.6985 434.358 72.9325C440.863 73.9407 446.41 73.8854 452.46 72.1629ZM302.164 72.7772C307.097 72.8762 308.389 75.3354 308.334 79.6414C308.201 89.9877 308.254 100.337 308.15 111.301C305.686 116.356 301.604 114.513 298.36 113.973C294.814 113.384 295.713 109.832 295.683 107.348C295.574 98.2043 295.777 89.056 295.599 79.9149C295.509 75.2488 296.842 72.6703 302.164 72.7772ZM734.638 108.538C735.479 108.538 736.2 108.839 736.802 109.441C737.405 110.044 737.706 110.765 737.706 111.606C737.706 112.163 737.564 112.675 737.28 113.14C737.007 113.606 736.638 113.981 736.173 114.265C735.718 114.538 735.206 114.674 734.638 114.674C733.798 114.674 733.076 114.373 732.473 113.77C731.871 113.168 731.57 112.447 731.57 111.606C731.57 110.765 731.871 110.044 732.473 109.441C733.076 108.839 733.798 108.538 734.638 108.538ZM602.742 72.7889C607.458 72.7144 609.441 74.8756 609.515 79.2352C609.552 81.3973 609.488 83.5611 609.448 86.4276C609.425 94.1049 609.365 101.079 609.442 108.053C609.491 112.473 607.78 114.586 602.947 114.528C598.416 114.474 596.05 112.968 596.085 108.323C596.157 98.7042 596.19 89.0849 596.191 79.4657C596.192 75.0991 598.011 72.8637 602.742 72.7889ZM786.302 95.2186C783.552 92.8416 780.43 91.7449 776.915 93.8885C773.475 95.9864 771.767 99.0817 772.078 102.988C772.509 108.4 776.723 110.795 785.006 109.55C786.638 108.403 787.866 106.957 788.588 105.082C790.052 101.277 789.388 97.8864 786.302 95.2186ZM670.852 84.701C667.38 82.8073 663.686 83.2433 660.519 85.6483C656.719 88.5347 656.467 92.6522 657.378 96.8221C658.286 100.981 661.182 103.728 665.341 104.379C670.848 105.241 673.879 101.852 676.185 96.2157C677.441 91.0085 675.345 87.1509 670.852 84.701ZM227.105 83.7293C220.668 83.7135 217.833 88.1953 217.586 93.5223C217.332 98.9829 220.481 103.56 226.322 104.293C232.58 105.078 236.412 101.713 237.178 94.1454C237.383 87.3145 233.947 83.7463 227.105 83.7293ZM81.4783 56.2928C91.3882 52.2948 100.191 54.4983 108.176 60.9608C110.649 62.9623 112.642 65.4419 114.178 68.8944C118.076 81.5379 115.375 91.7738 106.802 98.1112C98.4018 104.321 85.8228 105.048 77.0271 99.4657C69.0547 94.4056 64.4228 87.0866 65.1023 77.5877C65.8432 67.2311 71.7559 60.2154 81.4783 56.2928ZM405.277 82.3778C401.021 82.2782 397.073 82.6205 396.166 88.9032C401.648 88.1315 406.715 90.362 411.444 87.4276C411.039 84.1067 408.797 83.2159 405.277 82.3778ZM531.113 82.6854C526.672 82.1042 522.487 82.026 520.519 88.3875C526.037 88.831 530.874 89.4755 535.738 88.117C536.2 84.8622 533.906 84.1538 531.113 82.6854ZM300.79 54.8377C306.044 55.2462 309.403 57.3727 309.098 62.4559C308.891 65.9056 306.385 68.152 302.953 68.7469C298.97 69.4375 296.285 67.3062 295.12 63.7518C293.623 59.1839 295.987 56.4243 300.79 54.8377ZM602.328 54.9139C606.556 54.5836 609.255 56.7156 609.882 61.6229C609.032 67.1613 605.967 69.4394 601.084 68.4588C597.61 67.7611 595.798 65.0874 595.918 61.5145C596.053 57.5082 598.486 55.2142 602.328 54.9139Z" fill="black"/>
</svg>
